<svg width="53" height="52" viewBox="0 0 53 52" fill="none" xmlns="http://www.w3.org/2000/svg">
<path fill-rule="evenodd" clip-rule="evenodd" d="M25.9998 1C39.8072 1 51.0001 12.1928 51.0001 25.9996C51.0001 39.8069 39.8072 51.0002 25.9998 51.0002C12.193 51.0002 1.00011 39.8069 1.00011 25.9996C1.00011 12.1928 12.193 1 25.9998 1Z" fill="black" fill-opacity="0.01"/>
<path fill-rule="evenodd" clip-rule="evenodd" d="M49.0001 25.9996C49.0001 13.2974 38.7027 3 25.9998 3C13.2976 3 3.00011 13.2974 3.00011 25.9996C3.00011 38.7024 13.2976 49.0002 25.9998 49.0002C38.7026 49.0002 49.0001 38.7024 49.0001 25.9996ZM51.0001 25.9996C51.0001 12.1928 39.8072 1 25.9998 1C12.193 1 1.00011 12.1928 1.00011 25.9996C1.00011 39.8069 12.193 51.0002 25.9998 51.0002C39.8072 51.0002 51.0001 39.8069 51.0001 25.9996Z" fill="white"/>
<g clip-path="url(#clip0_1_18)">
<path d="M30.6636 17.151H32.9458V13.176C32.5521 13.1219 31.1979 13 29.6208 13C26.3302 13 24.0761 15.0698 24.0761 18.874V22.375H20.4448V26.8187H24.0761V38H28.5281V26.8198H32.0125L32.5656 22.376H28.5271V19.3146C28.5281 18.0302 28.874 17.151 30.6636 17.151Z" fill="white"/>
</g>
<defs>
<clipPath id="clip0_1_18">
<rect width="25" height="25" fill="white" transform="translate(14 13)"/>
</clipPath>
</defs>
</svg>
