<svg width="53" height="52" viewBox="0 0 53 52" fill="none" xmlns="http://www.w3.org/2000/svg">
<path fill-rule="evenodd" clip-rule="evenodd" d="M27.0002 1C40.807 1 52.0001 12.1928 52.0001 25.9996C52.0001 39.8069 40.807 51.0002 27.0002 51.0002C13.1927 51.0002 1.99985 39.8069 1.99985 25.9996C1.99985 12.1928 13.1927 1 27.0002 1Z" fill="black" fill-opacity="0.01"/>
<path fill-rule="evenodd" clip-rule="evenodd" d="M50.0001 25.9996C50.0001 13.2974 39.7024 3 27.0002 3C14.2972 3 3.99985 13.2974 3.99985 25.9996C3.99985 38.7024 14.2973 49.0002 27.0002 49.0002C39.7024 49.0002 50.0001 38.7024 50.0001 25.9996ZM52.0001 25.9996C52.0001 12.1928 40.807 1 27.0002 1C13.1927 1 1.99985 12.1928 1.99985 25.9996C1.99985 39.8069 13.1927 51.0002 27.0002 51.0002C40.807 51.0002 52.0001 39.8069 52.0001 25.9996Z" fill="white"/>
<g clip-path="url(#clip0_1_8)">
<path d="M27.326 14C20.747 14.001 17.25 18.216 17.25 22.812C17.25 24.943 18.441 27.602 20.348 28.445C20.892 28.69 20.82 28.391 21.288 26.601C21.325 26.452 21.306 26.323 21.186 26.184C18.46 23.031 20.654 16.549 26.937 16.549C36.03 16.549 34.331 29.131 28.519 29.131C27.021 29.131 25.905 27.955 26.258 26.5C26.686 24.767 27.524 22.904 27.524 21.655C27.524 18.507 22.834 18.974 22.834 23.145C22.834 24.434 23.29 25.304 23.29 25.304C23.29 25.304 21.781 31.4 21.501 32.539C21.027 34.467 21.565 37.588 21.612 37.857C21.641 38.005 21.807 38.052 21.9 37.93C22.049 37.735 23.873 35.133 24.384 33.252C24.57 32.567 25.333 29.787 25.333 29.787C25.836 30.695 27.286 31.455 28.831 31.455C33.427 31.455 36.749 27.415 36.749 22.402C36.733 17.596 32.62 14 27.326 14V14Z" fill="white"/>
</g>
<defs>
<clipPath id="clip0_1_8">
<rect width="24" height="24" fill="white" transform="translate(15 14)"/>
</clipPath>
</defs>
</svg>
